<svg width="1080" height="501" viewBox="0 0 1080 501" fill="none" xmlns="http://www.w3.org/2000/svg">
<g clip-path="url(#clip0_115_49)">
<rect width="1080" height="499.814" transform="translate(0 0.37207)" fill="#F61F1F"/>
<path fill-rule="evenodd" clip-rule="evenodd" d="M771.466 196.183L1035.43 460.15L771.466 724.117L507.499 460.15L771.466 196.183ZM771.21 264.854L966.506 460.15L771.21 655.445L575.915 460.15L771.21 264.854Z" fill="white"/>
<path fill-rule="evenodd" clip-rule="evenodd" d="M771.929 301.009L930.606 459.686L771.929 618.364L613.251 459.686L771.929 301.009ZM771.776 342.289L889.173 459.686L771.776 577.084L654.379 459.686L771.776 342.289Z" fill="white"/>
<path fill-rule="evenodd" clip-rule="evenodd" d="M619.684 51L748.368 179.684L619.684 308.368L491 179.684L619.684 51ZM619.56 84.4773L714.767 179.684L619.56 274.891L524.354 179.684L619.56 84.4773Z" fill="white"/>
<path d="M677.066 179.458L619.835 122.227L562.603 179.458L619.835 236.689L677.066 179.458Z" fill="white"/>
</g>
<defs>
<clipPath id="clip0_115_49">
<rect width="1080" height="499.814" fill="white" transform="translate(0 0.37207)"/>
</clipPath>
</defs>
</svg>
