<svg width="70" height="56" viewBox="0 0 70 56" fill="none" xmlns="http://www.w3.org/2000/svg">
<path d="M35.8562 0C37.7254 0.0105007 42.4017 0.0560033 47.372 0.255516L49.1361 0.33252C54.1379 0.567035 59.1362 0.97306 61.6179 1.6626C64.9256 2.59366 67.5227 5.30283 68.4013 8.74005C69.8014 14.2004 69.9764 24.8481 69.9974 27.4277L70.0009 27.9597V28.5688C69.9764 31.1484 69.8014 41.7996 68.4013 47.2564C67.5122 50.7042 64.9116 53.4168 61.6179 54.3339C59.1362 55.0234 54.1379 55.4295 49.1361 55.664L47.372 55.7445C42.4017 55.9405 37.7254 55.9895 35.8562 55.9965L35.0337 56H34.1411C30.1859 55.9755 13.6439 55.797 8.37952 54.3339C5.07532 53.4028 2.47466 50.6937 1.5961 47.2564C0.196013 41.7961 0.0210013 31.1484 0 28.5688V27.4277C0.0210013 24.8481 0.196013 14.1969 1.5961 8.74005C2.48516 5.29233 5.08582 2.57966 8.38302 1.6661C13.6439 0.199512 30.1894 0.0210013 34.1446 0H35.8562ZM27.9982 15.751V40.2525L48.9996 28.0017L27.9982 15.751Z" fill="white"/>
</svg>
